<?xml version="1.0" standalone="no"?>
<!DOCTYPE svg PUBLIC "-//W3C//DTD SVG 20010904//EN"
 "http://www.w3.org/TR/2001/REC-SVG-20010904/DTD/svg10.dtd">
<svg version="1.0" xmlns="http://www.w3.org/2000/svg"
 width="4928.000000pt" height="4928.000000pt" viewBox="0 0 4928.000000 4928.000000"
 preserveAspectRatio="xMidYMid meet">
<metadata>
Created by potrace 1.14, written by Peter Selinger 2001-2017
</metadata>
<g transform="translate(0.000000,4928.000000) scale(0.100000,-0.100000)"
fill="#000000" stroke="none">
<path d="M0 24640 l0 -24640 24640 0 24640 0 0 24640 0 24640 -24640 0 -24640
0 0 -24640z m21428 11700 c301 -23 634 -100 907 -210 140 -56 429 -209 561
-296 655 -434 1122 -1111 1298 -1882 55 -237 69 -377 70 -667 1 -285 -7 -382
-50 -605 -193 -995 -874 -1839 -1809 -2241 -668 -287 -1448 -326 -2133 -107
-452 144 -801 345 -1157 666 -494 444 -844 1083 -959 1747 -31 183 -40 296
-40 525 0 238 9 345 45 545 151 829 626 1553 1332 2025 122 81 381 218 531
280 428 178 931 257 1404 220z m7602 -24 c449 -66 881 -231 1255 -479 423
-281 794 -692 1022 -1133 230 -445 337 -858 350 -1349 11 -404 -40 -739 -167
-1101 -157 -450 -388 -814 -734 -1159 -431 -429 -895 -686 -1496 -829 -219
-52 -391 -70 -680 -70 -278 0 -431 16 -655 65 -979 217 -1787 888 -2178 1810
-163 386 -239 764 -239 1199 -1 366 45 646 162 992 91 270 193 477 355 718
228 340 512 625 840 844 441 295 947 473 1470 516 177 15 511 3 695 -24z
m-12920 -4930 c85 -14 187 -32 225 -41 815 -188 1529 -709 1956 -1426 223
-374 362 -781 415 -1220 20 -162 23 -527 5 -679 -144 -1258 -997 -2279 -2199
-2635 -489 -144 -1048 -163 -1542 -50 -573 131 -1075 409 -1490 825 -489 488
-775 1056 -883 1750 -17 112 -21 183 -21 420 -1 339 15 482 85 763 294 1178
1287 2093 2482 2287 204 33 296 39 562 35 206 -3 277 -8 405 -29z m18480 0
c85 -14 187 -32 225 -41 815 -188 1529 -709 1956 -1426 223 -374 362 -782 415
-1220 20 -161 22 -526 5 -679 -141 -1254 -997 -2279 -2199 -2635 -1050 -311
-2202 -29 -2992 732 -459 442 -765 996 -889 1609 -50 249 -56 317 -55 624 0
314 15 451 74 696 292 1213 1279 2137 2493 2334 204 33 296 39 562 35 206 -3
277 -8 405 -29z m-8980 -4295 c579 -56 1154 -303 1745 -749 262 -198 571 -484
836 -772 195 -214 1437 -1663 2219 -2590 58 -69 307 -364 555 -655 l449 -530
561 -565 c897 -905 1221 -1263 1605 -1775 673 -898 1023 -1697 1125 -2570 48
-404 21 -929 -61 -1185 -322 -1015 -961 -1855 -1758 -2314 -318 -183 -608
-301 -981 -398 l-160 -42 -310 0 c-334 0 -441 7 -985 69 -285 33 -415 49 -880
110 -2261 298 -3609 402 -4965 381 -1284 -19 -2304 -106 -4185 -356 -882 -117
-1370 -175 -1710 -201 -200 -15 -561 -15 -670 0 -172 24 -473 110 -698 200
-1040 414 -1841 1321 -2226 2518 -54 169 -72 293 -86 578 -44 912 218 1783
820 2725 409 641 1073 1404 2065 2375 366 358 470 475 1575 1775 227 267 510
600 629 740 119 140 318 374 442 520 691 814 806 948 929 1085 631 701 1257
1174 1875 1418 321 126 622 194 965 216 182 12 1136 6 1280 -8z"/>
<path d="M24480 23133 c-59 -10 -153 -47 -207 -82 -120 -78 -221 -231 -243
-371 -6 -42 -10 -509 -10 -1307 l0 -1243 -1287 -2 -1288 -3 -69 -27 c-166 -64
-291 -200 -340 -367 -23 -77 -23 -747 -1 -831 51 -191 201 -342 390 -390 76
-19 110 -20 1336 -20 l1258 0 3 -1277 c3 -1209 4 -1281 22 -1333 67 -203 220
-344 418 -384 109 -22 653 -23 760 -1 203 42 371 201 423 401 13 51 15 221 15
1326 l0 1268 1258 0 c1213 0 1262 1 1335 19 41 11 93 29 114 39 102 53 194
145 247 249 50 101 56 149 56 513 0 261 -4 349 -15 398 -37 155 -144 291 -287
363 -121 61 -64 59 -1445 59 l-1263 0 -2 1293 -3 1292 -23 60 c-49 132 -158
253 -276 309 -108 51 -153 56 -516 54 -184 0 -346 -3 -360 -5z"/>
</g>
</svg>
